<svg xmlns="http://www.w3.org/2000/svg" width="184" height="44" viewBox="0 0 184 44">
    <defs>
        <linearGradient id="oljfvy9zza" x1="50%" x2="50%" y1="0%" y2="100%">
            <stop offset="0%" stop-color="#FAD006"/>
            <stop offset="100%" stop-color="#CCA62C"/>
        </linearGradient>
    </defs>
    <g fill="none" fill-rule="evenodd">
        <g>
            <g>
                <g fill="#848181">
                    <path d="M29.236 4.306c-3.157 0-5.002.403-5.534 1.208-.532.806-.798 3.596-.798 8.37 0 3.536.311 5.664.934 6.386.623.721 2.458 1.082 5.507 1.082 2.914 0 4.663-.406 5.243-1.217.58-.812.871-3.275.871-7.387 0-4.125-.275-6.563-.825-7.315-.55-.751-2.35-1.127-5.398-1.127M29.599.3c4.5 0 7.396.743 8.69 2.228 1.295 1.485 1.942 4.807 1.942 9.966 0 5.64-.65 9.194-1.95 10.66-1.3 1.468-4.449 2.201-9.444 2.201-4.5 0-7.41-.724-8.728-2.173-1.318-1.45-1.977-4.639-1.977-9.57 0-5.868.647-9.553 1.941-11.057C21.367 1.053 24.543.301 29.6.301M48.106 12.91h6.749c1.609 0 2.676-.285 3.202-.857.527-.57.79-1.716.79-3.436 0-1.756-.227-2.889-.68-3.4-.454-.511-1.45-.767-2.985-.767h-7.076v8.46zm-4.7 12.23V.518h12.211c3.036 0 5.128.523 6.278 1.57 1.149 1.045 1.723 2.94 1.723 5.681 0 2.49-.287 4.191-.861 5.105-.575.914-1.751 1.545-3.53 1.894v.162c2.746.169 4.12 1.762 4.12 4.78v5.43h-4.7v-4.492c0-2.537-1.258-3.806-3.774-3.806h-6.767v8.298h-4.7zM4.742 4.45L4.742 11.088 15.846 11.088 15.846 15.02 4.742 15.02 4.742 25.14.043 25.14.043.518 16.444.518 16.444 4.45zM71.565 4.45L71.565 10.8 83.177 10.8 83.177 14.245 71.565 14.245 71.565 21.208 83.922 21.208 83.922 25.14 66.866 25.14 66.866.518 83.813.518 83.813 4.45zM92.122.518L92.122 10.547 94.336 10.547 102.573.518 108.416.518 98.418 12.477 109.468 25.14 103.444 25.14 94.372 14.479 92.122 14.479 92.122 25.14 87.423 25.14 87.423.518zM129.753 7.697h-4.59c-.025-.228-.037-.397-.037-.505-.109-1.382-.417-2.252-.925-2.606-.509-.355-1.706-.533-3.593-.533-2.225 0-3.68.205-4.363.614-.684.409-1.025 1.269-1.025 2.579 0 1.552.278 2.484.834 2.796.556.313 2.395.553 5.516.722 3.689.204 6.075.727 7.158 1.569 1.082.842 1.623 2.591 1.623 5.249 0 3.271-.635 5.384-1.905 6.34-1.27.956-4.07 1.435-8.4 1.435-3.895 0-6.481-.47-7.757-1.408-1.276-.938-1.914-2.837-1.914-5.7l-.018-.901h4.572l.018.523c0 1.72.303 2.772.907 3.156.605.385 2.256.577 4.954.577 2.105 0 3.447-.222 4.028-.667.58-.445.87-1.473.87-3.084 0-1.191-.22-1.982-.662-2.372-.441-.391-1.394-.629-2.857-.713l-2.595-.162c-3.919-.229-6.423-.77-7.512-1.624-1.088-.853-1.632-2.687-1.632-5.502 0-2.873.656-4.789 1.968-5.745C113.73.78 116.35.301 120.281.301c3.726 0 6.236.44 7.53 1.317 1.294.878 1.942 2.592 1.942 5.141v.938z" transform="translate(-22 -46) translate(22 46) translate(52.105 9.263)"/>
                </g>
                <path fill="url(#oljfvy9zza)" d="M9.908 21.959l12.18 12.108 5.846 5.812-2.802 2.785c-1.681 1.672-4.408 1.672-6.09 0L1.263 24.986c-1.682-1.672-1.682-4.382 0-6.054l17.78-17.678c1.682-1.672 4.409-1.672 6.09 0l2.802 2.784-5.846 5.812L9.908 21.96zm33.006 3.027l-8.89 8.84-5.847-5.813 6.09-6.054-6.09-6.054 5.846-5.812 8.891 8.839c1.682 1.672 1.682 4.382 0 6.054z" transform="translate(-22 -46) translate(22 46)"/>
            </g>
        </g>
    </g>
</svg>
